<?xml version="1.0" encoding="UTF-8" standalone="no"?>
<!DOCTYPE svg PUBLIC "-//W3C//DTD SVG 1.0//EN" "http://www.w3.org/TR/2001/PR-SVG-20010719/DTD/svg10.dtd">
<svg width="63cm" height="51cm" viewBox="49 -531 1241 1001" xmlns="http://www.w3.org/2000/svg" xmlns:xlink="http://www.w3.org/1999/xlink">
  <g>
    <rect style="fill: #ffffff" x="50" y="373" width="110.1" height="28"/>
    <rect style="fill: none; fill-opacity:0; stroke-width: 1; stroke: #000000" x="50" y="373" width="110.1" height="28"/>
    <text style="fill: #000000;text-anchor:middle;font-size:16;font-family:sanserif;font-style:normal;font-weight:700" x="105.05" y="392">Advisor</text>
    <rect style="fill: #ffffff" x="50" y="401" width="110.1" height="20"/>
    <rect style="fill: none; fill-opacity:0; stroke-width: 1; stroke: #000000" x="50" y="401" width="110.1" height="20"/>
    <text style="fill: #000000;text-anchor:start;font-size:12.8;font-family:monospace;font-style:normal;font-weight:normal" x="52.5" y="415">+task: String</text>
    <rect style="fill: #ffffff" x="50" y="421" width="110.1" height="8"/>
    <rect style="fill: none; fill-opacity:0; stroke-width: 1; stroke: #000000" x="50" y="421" width="110.1" height="8"/>
  </g>
  <g>
    <rect style="fill: #ffffff" x="172" y="112" width="110.1" height="28"/>
    <rect style="fill: none; fill-opacity:0; stroke-width: 1; stroke: #000000" x="172" y="112" width="110.1" height="28"/>
    <text style="fill: #000000;text-anchor:middle;font-size:16;font-family:sanserif;font-style:normal;font-weight:700" x="227.05" y="131">Country</text>
    <rect style="fill: #ffffff" x="172" y="140" width="110.1" height="36"/>
    <rect style="fill: none; fill-opacity:0; stroke-width: 1; stroke: #000000" x="172" y="140" width="110.1" height="36"/>
    <text style="fill: #000000;text-anchor:start;font-size:12.8;font-family:monospace;font-style:normal;font-weight:normal" x="174.5" y="154">+id: Long</text>
    <text style="fill: #000000;text-anchor:start;font-size:12.8;font-family:monospace;font-style:normal;font-weight:normal" x="174.5" y="170">+name: String</text>
    <rect style="fill: #ffffff" x="172" y="176" width="110.1" height="8"/>
    <rect style="fill: none; fill-opacity:0; stroke-width: 1; stroke: #000000" x="172" y="176" width="110.1" height="8"/>
  </g>
  <g>
    <rect style="fill: #ffffff" x="1099" y="75" width="120.15" height="28"/>
    <rect style="fill: none; fill-opacity:0; stroke-width: 1; stroke: #000000" x="1099" y="75" width="120.15" height="28"/>
    <text style="fill: #000000;text-anchor:middle;font-size:16;font-family:sanserif;font-style:normal;font-weight:700" x="1159.08" y="94">GroupMatch</text>
    <rect style="fill: #ffffff" x="1099" y="103" width="120.15" height="8"/>
    <rect style="fill: none; fill-opacity:0; stroke-width: 1; stroke: #000000" x="1099" y="103" width="120.15" height="8"/>
    <rect style="fill: #ffffff" x="1099" y="111" width="120.15" height="8"/>
    <rect style="fill: none; fill-opacity:0; stroke-width: 1; stroke: #000000" x="1099" y="111" width="120.15" height="8"/>
  </g>
  <g>
    <rect style="fill: #ffffff" x="568" y="373" width="117.15" height="28"/>
    <rect style="fill: none; fill-opacity:0; stroke-width: 1; stroke: #000000" x="568" y="373" width="117.15" height="28"/>
    <text style="fill: #000000;text-anchor:middle;font-size:16;font-family:sanserif;font-style:normal;font-weight:700" x="626.575" y="392">GroupStage</text>
    <rect style="fill: #ffffff" x="568" y="401" width="117.15" height="20"/>
    <rect style="fill: none; fill-opacity:0; stroke-width: 1; stroke: #000000" x="568" y="401" width="117.15" height="20"/>
    <text style="fill: #000000;text-anchor:start;font-size:12.8;font-family:monospace;font-style:normal;font-weight:normal" x="570.5" y="415">+id: Long</text>
    <rect style="fill: #ffffff" x="568" y="421" width="117.15" height="8"/>
    <rect style="fill: none; fill-opacity:0; stroke-width: 1; stroke: #000000" x="568" y="421" width="117.15" height="8"/>
  </g>
  <g>
    <rect style="fill: #ffffff" x="1022" y="-29" width="149.8" height="28"/>
    <rect style="fill: none; fill-opacity:0; stroke-width: 1; stroke: #000000" x="1022" y="-29" width="149.8" height="28"/>
    <text style="fill: #000000;text-anchor:middle;font-size:16;font-family:sanserif;font-style:normal;font-weight:700" x="1096.9" y="-10">KnockoutMatch</text>
    <rect style="fill: #ffffff" x="1022" y="-1" width="149.8" height="8"/>
    <rect style="fill: none; fill-opacity:0; stroke-width: 1; stroke: #000000" x="1022" y="-1" width="149.8" height="8"/>
    <rect style="fill: #ffffff" x="1022" y="7" width="149.8" height="8"/>
    <rect style="fill: none; fill-opacity:0; stroke-width: 1; stroke: #000000" x="1022" y="7" width="149.8" height="8"/>
  </g>
  <g>
    <rect style="fill: #ffffff" x="800" y="77" width="110.1" height="28"/>
    <rect style="fill: none; fill-opacity:0; stroke-width: 1; stroke: #000000" x="800" y="77" width="110.1" height="28"/>
    <text style="fill: #000000;text-anchor:middle;font-size:16;font-family:sanserif;font-style:normal;font-weight:700" x="855.05" y="96">Match</text>
    <rect style="fill: #ffffff" x="800" y="105" width="110.1" height="36"/>
    <rect style="fill: none; fill-opacity:0; stroke-width: 1; stroke: #000000" x="800" y="105" width="110.1" height="36"/>
    <text style="fill: #000000;text-anchor:start;font-size:12.8;font-family:monospace;font-style:normal;font-weight:normal" x="802.5" y="119">+id: Long</text>
    <text style="fill: #000000;text-anchor:start;font-size:12.8;font-family:monospace;font-style:normal;font-weight:normal" x="802.5" y="135">+name: String</text>
    <rect style="fill: #ffffff" x="800" y="141" width="110.1" height="8"/>
    <rect style="fill: none; fill-opacity:0; stroke-width: 1; stroke: #000000" x="800" y="141" width="110.1" height="8"/>
  </g>
  <g>
    <rect style="fill: #ffffff" x="836" y="-298" width="179.4" height="28"/>
    <rect style="fill: none; fill-opacity:0; stroke-width: 1; stroke: #000000" x="836" y="-298" width="179.4" height="28"/>
    <text style="fill: #000000;text-anchor:middle;font-size:16;font-family:sanserif;font-style:normal;font-weight:700" x="925.7" y="-279">MatchEvent</text>
    <rect style="fill: #ffffff" x="836" y="-270" width="179.4" height="52"/>
    <rect style="fill: none; fill-opacity:0; stroke-width: 1; stroke: #000000" x="836" y="-270" width="179.4" height="52"/>
    <text style="fill: #000000;text-anchor:start;font-size:12.8;font-family:monospace;font-style:normal;font-weight:normal" x="838.5" y="-256">+id: Long</text>
    <text style="fill: #000000;text-anchor:start;font-size:12.8;font-family:monospace;font-style:normal;font-weight:normal" x="838.5" y="-240">+minutue: int</text>
    <text style="fill: #000000;text-anchor:start;font-size:12.8;font-family:monospace;font-style:normal;font-weight:normal" x="838.5" y="-224">+additionalMinute: int</text>
    <rect style="fill: #ffffff" x="836" y="-218" width="179.4" height="8"/>
    <rect style="fill: none; fill-opacity:0; stroke-width: 1; stroke: #000000" x="836" y="-218" width="179.4" height="8"/>
  </g>
  <g>
    <rect style="fill: #ffffff" x="70" y="-166" width="148.6" height="28"/>
    <rect style="fill: none; fill-opacity:0; stroke-width: 1; stroke: #000000" x="70" y="-166" width="148.6" height="28"/>
    <text style="fill: #000000;text-anchor:middle;font-size:16;font-family:sanserif;font-style:normal;font-weight:700" x="144.3" y="-147">Person</text>
    <rect style="fill: #ffffff" x="70" y="-138" width="148.6" height="100"/>
    <rect style="fill: none; fill-opacity:0; stroke-width: 1; stroke: #000000" x="70" y="-138" width="148.6" height="100"/>
    <text style="fill: #000000;text-anchor:start;font-size:12.8;font-family:monospace;font-style:normal;font-weight:normal" x="72.5" y="-124">+Id: Long</text>
    <text style="fill: #000000;text-anchor:start;font-size:12.8;font-family:monospace;font-style:normal;font-weight:normal" x="72.5" y="-108">+firstname: String</text>
    <text style="fill: #000000;text-anchor:start;font-size:12.8;font-family:monospace;font-style:normal;font-weight:normal" x="72.5" y="-92">+lastname: String</text>
    <text style="fill: #000000;text-anchor:start;font-size:12.8;font-family:monospace;font-style:normal;font-weight:normal" x="72.5" y="-76">+birthday: Date</text>
    <text style="fill: #000000;text-anchor:start;font-size:12.8;font-family:monospace;font-style:normal;font-weight:normal" x="72.5" y="-60">+height: int</text>
    <text style="fill: #000000;text-anchor:start;font-size:12.8;font-family:monospace;font-style:normal;font-weight:normal" x="72.5" y="-44">+weight: int</text>
    <rect style="fill: #ffffff" x="70" y="-38" width="148.6" height="8"/>
    <rect style="fill: none; fill-opacity:0; stroke-width: 1; stroke: #000000" x="70" y="-38" width="148.6" height="8"/>
  </g>
  <g>
    <rect style="fill: #ffffff" x="300" y="-285" width="140.9" height="28"/>
    <rect style="fill: none; fill-opacity:0; stroke-width: 1; stroke: #000000" x="300" y="-285" width="140.9" height="28"/>
    <text style="fill: #000000;text-anchor:middle;font-size:16;font-family:sanserif;font-style:normal;font-weight:700" x="370.45" y="-266">Player</text>
    <rect style="fill: #ffffff" x="300" y="-257" width="140.9" height="36"/>
    <rect style="fill: none; fill-opacity:0; stroke-width: 1; stroke: #000000" x="300" y="-257" width="140.9" height="36"/>
    <text style="fill: #000000;text-anchor:start;font-size:12.8;font-family:monospace;font-style:normal;font-weight:normal" x="302.5" y="-243">+nickname: String</text>
    <text style="fill: #000000;text-anchor:start;font-size:12.8;font-family:monospace;font-style:normal;font-weight:normal" x="302.5" y="-227">+club: String</text>
    <rect style="fill: #ffffff" x="300" y="-221" width="140.9" height="8"/>
    <rect style="fill: none; fill-opacity:0; stroke-width: 1; stroke: #000000" x="300" y="-221" width="140.9" height="8"/>
  </g>
  <g>
    <rect style="fill: #ffffff" x="605" y="-234" width="117.8" height="28"/>
    <rect style="fill: none; fill-opacity:0; stroke-width: 1; stroke: #000000" x="605" y="-234" width="117.8" height="28"/>
    <text style="fill: #000000;text-anchor:middle;font-size:16;font-family:sanserif;font-style:normal;font-weight:700" x="663.9" y="-215">Stadium</text>
    <rect style="fill: #ffffff" x="605" y="-206" width="117.8" height="52"/>
    <rect style="fill: none; fill-opacity:0; stroke-width: 1; stroke: #000000" x="605" y="-206" width="117.8" height="52"/>
    <text style="fill: #000000;text-anchor:start;font-size:12.8;font-family:monospace;font-style:normal;font-weight:normal" x="607.5" y="-192">+name: String</text>
    <text style="fill: #000000;text-anchor:start;font-size:12.8;font-family:monospace;font-style:normal;font-weight:normal" x="607.5" y="-176">+city: String</text>
    <text style="fill: #000000;text-anchor:start;font-size:12.8;font-family:monospace;font-style:normal;font-weight:normal" x="607.5" y="-160">+capacity: int</text>
    <rect style="fill: #ffffff" x="605" y="-154" width="117.8" height="8"/>
    <rect style="fill: none; fill-opacity:0; stroke-width: 1; stroke: #000000" x="605" y="-154" width="117.8" height="8"/>
  </g>
  <g>
    <polyline style="fill: none; fill-opacity:0; stroke-width: 2; stroke: #000000" points="144.3,-11.2556 144.3,171.501 105.05,171.501 105.05,372.493 "/>
    <polygon style="fill: #ffffff" points="152.3,-11.2556 144.3,-27.2556 136.3,-11.2556 "/>
    <polygon style="fill: none; fill-opacity:0; stroke-width: 2; stroke: #000000" points="152.3,-11.2556 144.3,-27.2556 136.3,-11.2556 "/>
  </g>
  <g>
    <polyline style="fill: none; fill-opacity:0; stroke-width: 2; stroke: #000000" points="144.3,-184.744 144.3,-189.5 370.45,-189.5 370.45,-212.491 "/>
    <polygon style="fill: #ffffff" points="136.3,-184.744 144.3,-168.744 152.3,-184.744 "/>
    <polygon style="fill: none; fill-opacity:0; stroke-width: 2; stroke: #000000" points="136.3,-184.744 144.3,-168.744 152.3,-184.744 "/>
  </g>
  <g>
    <rect style="fill: #ffffff" x="393.5" y="275.5" width="110.1" height="28"/>
    <rect style="fill: none; fill-opacity:0; stroke-width: 1; stroke: #000000" x="393.5" y="275.5" width="110.1" height="28"/>
    <text style="fill: #000000;text-anchor:middle;font-size:16;font-family:sanserif;font-style:normal;font-weight:700" x="448.55" y="294.5">Team</text>
    <rect style="fill: #ffffff" x="393.5" y="303.5" width="110.1" height="36"/>
    <rect style="fill: none; fill-opacity:0; stroke-width: 1; stroke: #000000" x="393.5" y="303.5" width="110.1" height="36"/>
    <text style="fill: #000000;text-anchor:start;font-size:12.8;font-family:monospace;font-style:normal;font-weight:normal" x="396" y="317.5">+id: Long</text>
    <text style="fill: #000000;text-anchor:start;font-size:12.8;font-family:monospace;font-style:normal;font-weight:normal" x="396" y="333.5">+name: String</text>
    <rect style="fill: #ffffff" x="393.5" y="339.5" width="110.1" height="8"/>
    <rect style="fill: none; fill-opacity:0; stroke-width: 1; stroke: #000000" x="393.5" y="339.5" width="110.1" height="8"/>
  </g>
  <g>
    <polyline style="fill: none; fill-opacity:0; stroke-width: 2; stroke: #000000" points="219.109,-98 306.051,-98 306.051,311.5 392.993,311.5 "/>
    <text style="fill: #000000;text-anchor:start;font-size:12.7998;font-family:monospace;font-style:normal;font-weight:normal" x="308.051" y="102.75"></text>
    <text style="fill: #000000;text-anchor:start;font-size:12.7998;font-family:monospace;font-style:normal;font-weight:normal" x="223.109" y="-102"></text>
    <text style="fill: #000000;text-anchor:end;font-size:12.7998;font-family:monospace;font-style:normal;font-weight:normal" x="388.993" y="307.5"></text>
  </g>
  <g>
    <polyline style="fill: none; fill-opacity:0; stroke-width: 2; stroke: #000000" points="928.843,113 1004.55,113 1004.55,97 1098.49,97 "/>
    <polygon style="fill: #ffffff" points="928.843,105 912.843,113 928.843,121 "/>
    <polygon style="fill: none; fill-opacity:0; stroke-width: 2; stroke: #000000" points="928.843,105 912.843,113 928.843,121 "/>
  </g>
  <g>
    <polyline style="fill: none; fill-opacity:0; stroke-width: 2; stroke: #000000" points="855.05,58.255 855.05,45.9983 1096.9,45.9983 1096.9,15.5055 "/>
    <polygon style="fill: #ffffff" points="847.05,58.255 855.05,74.255 863.05,58.255 "/>
    <polygon style="fill: none; fill-opacity:0; stroke-width: 2; stroke: #000000" points="847.05,58.255 855.05,74.255 863.05,58.255 "/>
  </g>
  <g>
    <rect style="fill: #ffffff" x="921.268" y="381.754" width="172.75" height="28"/>
    <rect style="fill: none; fill-opacity:0; stroke-width: 1; stroke: #000000" x="921.268" y="381.754" width="172.75" height="28"/>
    <text style="fill: #000000;text-anchor:middle;font-size:16;font-family:sanserif;font-style:normal;font-weight:700" x="1007.64" y="400.754">TournamentGroup</text>
    <rect style="fill: #ffffff" x="921.268" y="409.754" width="172.75" height="36"/>
    <rect style="fill: none; fill-opacity:0; stroke-width: 1; stroke: #000000" x="921.268" y="409.754" width="172.75" height="36"/>
    <text style="fill: #000000;text-anchor:start;font-size:12.8;font-family:monospace;font-style:normal;font-weight:normal" x="923.768" y="423.754">+name: String</text>
    <text style="fill: #000000;text-anchor:start;font-size:12.8;font-family:monospace;font-style:normal;font-weight:normal" x="923.768" y="439.754">+id: Long</text>
    <rect style="fill: #ffffff" x="921.268" y="445.754" width="172.75" height="8"/>
    <rect style="fill: none; fill-opacity:0; stroke-width: 1; stroke: #000000" x="921.268" y="445.754" width="172.75" height="8"/>
  </g>
  <g>
    <polyline style="fill: none; fill-opacity:0; stroke-width: 2; stroke: #000000" points="1159.08,119.505 1159.08,250.63 1094.02,250.63 1094.02,381.754 "/>
    <text style="fill: #000000;text-anchor:middle;font-size:12.7998;font-family:monospace;font-style:normal;font-weight:normal" x="1126.55" y="246.63"></text>
    <text style="fill: #000000;text-anchor:start;font-size:12.7998;font-family:monospace;font-style:normal;font-weight:normal" x="1163.08" y="131.505"></text>
    <text style="fill: #000000;text-anchor:start;font-size:12.7998;font-family:monospace;font-style:normal;font-weight:normal" x="1098.02" y="377.754"></text>
  </g>
  <g>
    <polyline style="fill: none; fill-opacity:0; stroke-width: 2; stroke: #000000" points="685.657,401 803.463,401 803.463,453.754 921.268,453.754 "/>
    <text style="fill: #000000;text-anchor:start;font-size:12.7998;font-family:monospace;font-style:normal;font-weight:normal" x="805.463" y="423.377"></text>
    <text style="fill: #000000;text-anchor:start;font-size:12.7998;font-family:monospace;font-style:normal;font-weight:normal" x="689.657" y="397"></text>
    <text style="fill: #000000;text-anchor:end;font-size:12.7998;font-family:monospace;font-style:normal;font-weight:normal" x="917.268" y="449.754"></text>
  </g>
  <g>
    <polyline style="fill: none; fill-opacity:0; stroke-width: 2; stroke: #000000" points="1096.9,-29.5055 1096.9,-49.5055 1192.31,-49.5055 1192.31,-7 1172.31,-7 "/>
    <text style="fill: #000000;text-anchor:middle;font-size:12.7998;font-family:monospace;font-style:normal;font-weight:normal" x="1144.6" y="-53.5055"></text>
    <text style="fill: #000000;text-anchor:start;font-size:12.7998;font-family:monospace;font-style:normal;font-weight:normal" x="1100.9" y="-33.5055"></text>
    <text style="fill: #000000;text-anchor:start;font-size:12.7998;font-family:monospace;font-style:normal;font-weight:normal" x="1176.31" y="-11"></text>
  </g>
  <g>
    <polyline style="fill: none; fill-opacity:0; stroke-width: 2; stroke: #000000" points="800,149 800,212.25 503.6,212.25 503.6,275.5 "/>
    <text style="fill: #000000;text-anchor:middle;font-size:12.7998;font-family:monospace;font-style:normal;font-weight:normal" x="651.8" y="208.25"></text>
    <text style="fill: #000000;text-anchor:start;font-size:12.7998;font-family:monospace;font-style:normal;font-weight:normal" x="804" y="161"></text>
    <text style="fill: #000000;text-anchor:start;font-size:12.7998;font-family:monospace;font-style:normal;font-weight:normal" x="507.6" y="271.5"></text>
  </g>
  <g>
    <polyline style="fill: none; fill-opacity:0; stroke-width: 2; stroke: #000000" points="723.307,-190 761.4,-190 761.4,113 799.493,113 "/>
    <text style="fill: #000000;text-anchor:start;font-size:12.7998;font-family:monospace;font-style:normal;font-weight:normal" x="763.4" y="-42.5"></text>
    <text style="fill: #000000;text-anchor:start;font-size:12.7998;font-family:monospace;font-style:normal;font-weight:normal" x="727.307" y="-194"></text>
    <text style="fill: #000000;text-anchor:end;font-size:12.7998;font-family:monospace;font-style:normal;font-weight:normal" x="795.493" y="109"></text>
  </g>
  <g>
    <polyline style="fill: none; fill-opacity:0; stroke-width: 2; stroke: #000000" points="925.7,-209.495 925.7,-66.2473 910.1,-66.2473 910.1,77 "/>
    <text style="fill: #000000;text-anchor:middle;font-size:12.7998;font-family:monospace;font-style:normal;font-weight:normal" x="917.9" y="-70.2473"></text>
    <text style="fill: #000000;text-anchor:start;font-size:12.7998;font-family:monospace;font-style:normal;font-weight:normal" x="929.7" y="-197.495"></text>
    <text style="fill: #000000;text-anchor:start;font-size:12.7998;font-family:monospace;font-style:normal;font-weight:normal" x="914.1" y="73"></text>
  </g>
  <g>
    <polyline style="fill: none; fill-opacity:0; stroke-width: 2; stroke: #000000" points="663.9,-145.495 663.9,-17.0017 227.05,-17.0017 227.05,111.491 "/>
    <text style="fill: #000000;text-anchor:middle;font-size:12.7998;font-family:monospace;font-style:normal;font-weight:normal" x="445.475" y="-21.0017"></text>
    <text style="fill: #000000;text-anchor:start;font-size:12.7998;font-family:monospace;font-style:normal;font-weight:normal" x="667.9" y="-133.495"></text>
    <text style="fill: #000000;text-anchor:start;font-size:12.7998;font-family:monospace;font-style:normal;font-weight:normal" x="231.05" y="107.491"></text>
  </g>
  <g>
    <polyline style="fill: none; fill-opacity:0; stroke-width: 2; stroke: #000000" points="440.9,-213 440.9,30.9955 448.55,30.9955 448.55,274.991 "/>
    <text style="fill: #000000;text-anchor:middle;font-size:12.7998;font-family:monospace;font-style:normal;font-weight:normal" x="444.725" y="26.9955"></text>
    <text style="fill: #000000;text-anchor:start;font-size:12.7998;font-family:monospace;font-style:normal;font-weight:normal" x="444.9" y="-201"></text>
    <text style="fill: #000000;text-anchor:start;font-size:12.7998;font-family:monospace;font-style:normal;font-weight:normal" x="452.55" y="270.991"></text>
  </g>
  <g>
    <polyline style="fill: none; fill-opacity:0; stroke-width: 2; stroke: #000000" points="448.55,348.009 448.55,360.251 105.05,360.251 105.05,372.493 "/>
    <text style="fill: #000000;text-anchor:middle;font-size:12.7998;font-family:monospace;font-style:normal;font-weight:normal" x="276.8" y="356.251"></text>
    <text style="fill: #000000;text-anchor:start;font-size:12.7998;font-family:monospace;font-style:normal;font-weight:normal" x="452.55" y="360.009"></text>
    <text style="fill: #000000;text-anchor:start;font-size:12.7998;font-family:monospace;font-style:normal;font-weight:normal" x="109.05" y="368.493"></text>
  </g>
  <g>
    <polyline style="fill: none; fill-opacity:0; stroke-width: 2; stroke: #000000" points="393.5,275.5 393.5,230.004 227.05,230.004 227.05,184.509 "/>
    <text style="fill: #000000;text-anchor:middle;font-size:12.7998;font-family:monospace;font-style:normal;font-weight:normal" x="310.275" y="226.004"></text>
    <text style="fill: #000000;text-anchor:start;font-size:12.7998;font-family:monospace;font-style:normal;font-weight:normal" x="397.5" y="271.5"></text>
    <text style="fill: #000000;text-anchor:start;font-size:12.7998;font-family:monospace;font-style:normal;font-weight:normal" x="231.05" y="196.509"></text>
  </g>
  <g>
    <rect style="fill: #ffffff" x="544.588" y="-5.99958" width="117.85" height="28"/>
    <rect style="fill: none; fill-opacity:0; stroke-width: 1; stroke: #000000" x="544.588" y="-5.99958" width="117.85" height="28"/>
    <text style="fill: #000000;text-anchor:middle;font-size:16;font-family:sanserif;font-style:normal;font-weight:700" x="603.513" y="13.0004">Tournament</text>
    <rect style="fill: #ffffff" x="544.588" y="22.0004" width="117.85" height="36"/>
    <rect style="fill: none; fill-opacity:0; stroke-width: 1; stroke: #000000" x="544.588" y="22.0004" width="117.85" height="36"/>
    <text style="fill: #000000;text-anchor:start;font-size:12.8;font-family:monospace;font-style:normal;font-weight:normal" x="547.088" y="36.0004">+year: int</text>
    <text style="fill: #000000;text-anchor:start;font-size:12.8;font-family:monospace;font-style:normal;font-weight:normal" x="547.088" y="52.0004">+name: String</text>
    <rect style="fill: #ffffff" x="544.588" y="58.0004" width="117.85" height="8"/>
    <rect style="fill: none; fill-opacity:0; stroke-width: 1; stroke: #000000" x="544.588" y="58.0004" width="117.85" height="8"/>
  </g>
  <g>
    <polyline style="fill: none; fill-opacity:0; stroke-width: 2; stroke: #000000" points="544.588,66.0004 544.588,89.0002 282.1,89.0002 282.1,112 "/>
    <text style="fill: #000000;text-anchor:middle;font-size:12.7998;font-family:monospace;font-style:normal;font-weight:normal" x="413.344" y="85.0002"></text>
    <text style="fill: #000000;text-anchor:start;font-size:12.7998;font-family:monospace;font-style:normal;font-weight:normal" x="548.588" y="78.0004"></text>
    <text style="fill: #000000;text-anchor:start;font-size:12.7998;font-family:monospace;font-style:normal;font-weight:normal" x="286.1" y="108"></text>
  </g>
  <g>
    <polyline style="fill: none; fill-opacity:0; stroke-width: 2; stroke: #000000" points="662.945,30.0004 731.473,30.0004 731.473,77 800,77 "/>
    <text style="fill: #000000;text-anchor:start;font-size:12.7998;font-family:monospace;font-style:normal;font-weight:normal" x="733.473" y="49.5002"></text>
    <text style="fill: #000000;text-anchor:start;font-size:12.7998;font-family:monospace;font-style:normal;font-weight:normal" x="666.945" y="26.0004"></text>
    <text style="fill: #000000;text-anchor:end;font-size:12.7998;font-family:monospace;font-style:normal;font-weight:normal" x="796" y="73"></text>
  </g>
  <g>
    <polyline style="fill: none; fill-opacity:0; stroke-width: 2; stroke: #000000" points="603.513,66.5093 603.513,219.501 626.575,219.501 626.575,372.493 "/>
    <text style="fill: #000000;text-anchor:middle;font-size:12.7998;font-family:monospace;font-style:normal;font-weight:normal" x="615.044" y="215.501"></text>
    <text style="fill: #000000;text-anchor:start;font-size:12.7998;font-family:monospace;font-style:normal;font-weight:normal" x="607.513" y="78.5093"></text>
    <text style="fill: #000000;text-anchor:start;font-size:12.7998;font-family:monospace;font-style:normal;font-weight:normal" x="630.575" y="368.493"></text>
  </g>
  <g>
    <polyline style="fill: none; fill-opacity:0; stroke-width: 2; stroke: #000000" points="603.513,-6.50849 603.513,-76.2542 605,-76.2542 605,-146 "/>
    <text style="fill: #000000;text-anchor:middle;font-size:12.7998;font-family:monospace;font-style:normal;font-weight:normal" x="604.256" y="-80.2542"></text>
    <text style="fill: #000000;text-anchor:start;font-size:12.7998;font-family:monospace;font-style:normal;font-weight:normal" x="607.513" y="-10.5085"></text>
    <text style="fill: #000000;text-anchor:start;font-size:12.7998;font-family:monospace;font-style:normal;font-weight:normal" x="609" y="-134"></text>
  </g>
  <g>
    <polyline style="fill: none; fill-opacity:0; stroke-width: 2; stroke: #000000" points="921.268,381.754 921.268,265.377 910.1,265.377 910.1,149 "/>
    <text style="fill: #000000;text-anchor:middle;font-size:12.7998;font-family:monospace;font-style:normal;font-weight:normal" x="915.684" y="261.377"></text>
    <text style="fill: #000000;text-anchor:start;font-size:12.7998;font-family:monospace;font-style:normal;font-weight:normal" x="925.268" y="377.754"></text>
    <text style="fill: #000000;text-anchor:start;font-size:12.7998;font-family:monospace;font-style:normal;font-weight:normal" x="914.1" y="161"></text>
  </g>
  <g>
    <polyline style="fill: none; fill-opacity:0; stroke-width: 2; stroke: #000000" points="1007.64,381.245 1007.64,364.627 448.55,364.627 448.55,348.009 "/>
    <text style="fill: #000000;text-anchor:middle;font-size:12.7998;font-family:monospace;font-style:normal;font-weight:normal" x="728.097" y="360.627"></text>
    <text style="fill: #000000;text-anchor:start;font-size:12.7998;font-family:monospace;font-style:normal;font-weight:normal" x="1011.64" y="377.245"></text>
    <text style="fill: #000000;text-anchor:start;font-size:12.7998;font-family:monospace;font-style:normal;font-weight:normal" x="452.55" y="360.009"></text>
  </g>
  <g>
    <polyline style="fill: none; fill-opacity:0; stroke-width: 2; stroke: #000000" points="920.763,417.754 791.6,417.754 791.6,66.0004 662.438,66.0004 "/>
    <text style="fill: #000000;text-anchor:start;font-size:12.7998;font-family:monospace;font-style:normal;font-weight:normal" x="793.6" y="237.877"></text>
    <text style="fill: #000000;text-anchor:end;font-size:12.7998;font-family:monospace;font-style:normal;font-weight:normal" x="916.763" y="413.754"></text>
    <text style="fill: #000000;text-anchor:start;font-size:12.7998;font-family:monospace;font-style:normal;font-weight:normal" x="666.438" y="62.0004"></text>
  </g>
  <g>
    <rect style="fill: #ffffff" x="813.5" y="-423" width="118.05" height="28"/>
    <rect style="fill: none; fill-opacity:0; stroke-width: 1; stroke: #000000" x="813.5" y="-423" width="118.05" height="28"/>
    <text style="fill: #000000;text-anchor:middle;font-size:16;font-family:sanserif;font-style:normal;font-weight:700" x="872.525" y="-404">PlayerEvent</text>
    <rect style="fill: #ffffff" x="813.5" y="-395" width="118.05" height="8"/>
    <rect style="fill: none; fill-opacity:0; stroke-width: 1; stroke: #000000" x="813.5" y="-395" width="118.05" height="8"/>
    <rect style="fill: #ffffff" x="813.5" y="-387" width="118.05" height="8"/>
    <rect style="fill: none; fill-opacity:0; stroke-width: 1; stroke: #000000" x="813.5" y="-387" width="118.05" height="8"/>
  </g>
  <g>
    <rect style="fill: #ffffff" x="1081.5" y="-251" width="150.35" height="28"/>
    <rect style="fill: none; fill-opacity:0; stroke-width: 1; stroke: #000000" x="1081.5" y="-251" width="150.35" height="28"/>
    <text style="fill: #000000;text-anchor:middle;font-size:16;font-family:sanserif;font-style:normal;font-weight:700" x="1156.67" y="-232">MatchEndEvent</text>
    <rect style="fill: #ffffff" x="1081.5" y="-223" width="150.35" height="8"/>
    <rect style="fill: none; fill-opacity:0; stroke-width: 1; stroke: #000000" x="1081.5" y="-223" width="150.35" height="8"/>
    <rect style="fill: #ffffff" x="1081.5" y="-215" width="150.35" height="8"/>
    <rect style="fill: none; fill-opacity:0; stroke-width: 1; stroke: #000000" x="1081.5" y="-215" width="150.35" height="8"/>
  </g>
  <g>
    <rect style="fill: #ffffff" x="992.5" y="-524" width="117.8" height="28"/>
    <rect style="fill: none; fill-opacity:0; stroke-width: 1; stroke: #000000" x="992.5" y="-524" width="117.8" height="28"/>
    <text style="fill: #000000;text-anchor:middle;font-size:16;font-family:sanserif;font-style:normal;font-weight:700" x="1051.4" y="-505">CardEvent</text>
    <rect style="fill: #ffffff" x="992.5" y="-496" width="117.8" height="20"/>
    <rect style="fill: none; fill-opacity:0; stroke-width: 1; stroke: #000000" x="992.5" y="-496" width="117.8" height="20"/>
    <text style="fill: #000000;text-anchor:start;font-size:12.8;font-family:monospace;font-style:normal;font-weight:normal" x="995" y="-482">+color: String</text>
    <rect style="fill: #ffffff" x="992.5" y="-476" width="117.8" height="8"/>
    <rect style="fill: none; fill-opacity:0; stroke-width: 1; stroke: #000000" x="992.5" y="-476" width="117.8" height="8"/>
  </g>
  <g>
    <rect style="fill: #ffffff" x="1115.5" y="-401" width="101.75" height="28"/>
    <rect style="fill: none; fill-opacity:0; stroke-width: 1; stroke: #000000" x="1115.5" y="-401" width="101.75" height="28"/>
    <text style="fill: #000000;text-anchor:middle;font-size:16;font-family:sanserif;font-style:normal;font-weight:700" x="1166.38" y="-382">GoalEvent</text>
    <rect style="fill: #ffffff" x="1115.5" y="-373" width="101.75" height="8"/>
    <rect style="fill: none; fill-opacity:0; stroke-width: 1; stroke: #000000" x="1115.5" y="-373" width="101.75" height="8"/>
    <rect style="fill: #ffffff" x="1115.5" y="-365" width="101.75" height="8"/>
    <rect style="fill: none; fill-opacity:0; stroke-width: 1; stroke: #000000" x="1115.5" y="-365" width="101.75" height="8"/>
  </g>
  <g>
    <rect style="fill: #ffffff" x="681.5" y="-530" width="172.9" height="28"/>
    <rect style="fill: none; fill-opacity:0; stroke-width: 1; stroke: #000000" x="681.5" y="-530" width="172.9" height="28"/>
    <text style="fill: #000000;text-anchor:middle;font-size:16;font-family:sanserif;font-style:normal;font-weight:700" x="767.95" y="-511">SubstitutionEvent</text>
    <rect style="fill: #ffffff" x="681.5" y="-502" width="172.9" height="8"/>
    <rect style="fill: none; fill-opacity:0; stroke-width: 1; stroke: #000000" x="681.5" y="-502" width="172.9" height="8"/>
    <rect style="fill: #ffffff" x="681.5" y="-494" width="172.9" height="8"/>
    <rect style="fill: none; fill-opacity:0; stroke-width: 1; stroke: #000000" x="681.5" y="-494" width="172.9" height="8"/>
  </g>
  <g>
    <rect style="fill: #ffffff" x="532.5" y="-423" width="122.1" height="28"/>
    <rect style="fill: none; fill-opacity:0; stroke-width: 1; stroke: #000000" x="532.5" y="-423" width="122.1" height="28"/>
    <text style="fill: #000000;text-anchor:middle;font-size:16;font-family:sanserif;font-style:normal;font-weight:700" x="593.55" y="-404">LineupEvent</text>
    <rect style="fill: #ffffff" x="532.5" y="-395" width="122.1" height="8"/>
    <rect style="fill: none; fill-opacity:0; stroke-width: 1; stroke: #000000" x="532.5" y="-395" width="122.1" height="8"/>
    <rect style="fill: #ffffff" x="532.5" y="-387" width="122.1" height="8"/>
    <rect style="fill: none; fill-opacity:0; stroke-width: 1; stroke: #000000" x="532.5" y="-387" width="122.1" height="8"/>
  </g>
  <g>
    <polyline style="fill: none; fill-opacity:0; stroke-width: 2; stroke: #000000" points="872.525,-378.495 872.525,-332.002 370.45,-332.002 370.45,-285.509 "/>
    <text style="fill: #000000;text-anchor:middle;font-size:12.7998;font-family:monospace;font-style:normal;font-weight:normal" x="621.487" y="-336.002"></text>
    <text style="fill: #000000;text-anchor:start;font-size:12.7998;font-family:monospace;font-style:normal;font-weight:normal" x="876.525" y="-366.495"></text>
    <text style="fill: #000000;text-anchor:start;font-size:12.7998;font-family:monospace;font-style:normal;font-weight:normal" x="374.45" y="-289.509"></text>
  </g>
  <g>
    <polyline style="fill: none; fill-opacity:0; stroke-width: 2; stroke: #000000" points="925.7,-316.735 925.7,-338.5 931.55,-338.5 931.55,-379 "/>
    <polygon style="fill: #ffffff" points="917.7,-316.735 925.7,-300.735 933.7,-316.735 "/>
    <polygon style="fill: none; fill-opacity:0; stroke-width: 2; stroke: #000000" points="917.7,-316.735 925.7,-300.735 933.7,-316.735 "/>
  </g>
  <g>
    <polyline style="fill: none; fill-opacity:0; stroke-width: 2; stroke: #000000" points="1034.14,-254 1048.45,-254 1048.45,-229 1080.99,-229 "/>
    <polygon style="fill: #ffffff" points="1034.14,-262 1018.14,-254 1034.14,-246 "/>
    <polygon style="fill: none; fill-opacity:0; stroke-width: 2; stroke: #000000" points="1034.14,-262 1018.14,-254 1034.14,-246 "/>
  </g>
  <g>
    <polyline style="fill: none; fill-opacity:0; stroke-width: 2; stroke: #000000" points="872.525,-441.742 872.525,-445.499 1051.4,-445.499 1051.4,-467.493 "/>
    <polygon style="fill: #ffffff" points="864.525,-441.742 872.525,-425.742 880.525,-441.742 "/>
    <polygon style="fill: none; fill-opacity:0; stroke-width: 2; stroke: #000000" points="864.525,-441.742 872.525,-425.742 880.525,-441.742 "/>
  </g>
  <g>
    <polyline style="fill: none; fill-opacity:0; stroke-width: 2; stroke: #000000" points="794.757,-401 655.108,-401 655.108,-401 "/>
    <polygon style="fill: #ffffff" points="794.757,-393 810.757,-401 794.757,-409 "/>
    <polygon style="fill: none; fill-opacity:0; stroke-width: 2; stroke: #000000" points="794.757,-393 810.757,-401 794.757,-409 "/>
  </g>
  <g>
    <polyline style="fill: none; fill-opacity:0; stroke-width: 2; stroke: #000000" points="872.525,-441.742 872.525,-454.5 767.95,-454.5 767.95,-485.495 "/>
    <polygon style="fill: #ffffff" points="864.525,-441.742 872.525,-425.742 880.525,-441.742 "/>
    <polygon style="fill: none; fill-opacity:0; stroke-width: 2; stroke: #000000" points="864.525,-441.742 872.525,-425.742 880.525,-441.742 "/>
  </g>
  <g>
    <polyline style="fill: none; fill-opacity:0; stroke-width: 2; stroke: #000000" points="950.293,-401 1023.53,-401 1023.53,-379 1114.99,-379 "/>
    <polygon style="fill: #ffffff" points="950.293,-409 934.293,-401 950.293,-393 "/>
    <polygon style="fill: none; fill-opacity:0; stroke-width: 2; stroke: #000000" points="950.293,-409 934.293,-401 950.293,-393 "/>
  </g>
  <g>
    <polyline style="fill: none; fill-opacity:0; stroke-width: 2; stroke: #000000" points="1217.74,-379 1278.5,-379 1278.5,347.5 503.6,347.5 "/>
    <text style="fill: #000000;text-anchor:start;font-size:12.7998;font-family:monospace;font-style:normal;font-weight:normal" x="1280.5" y="-19.75"></text>
    <polygon style="fill: #000000" points="1282.5,-19.75 1282.5,-27.75 1290.5,-23.75 "/>
    <text style="fill: #000000;text-anchor:start;font-size:12.7998;font-family:monospace;font-style:normal;font-weight:normal" x="1221.74" y="-383"></text>
    <text style="fill: #000000;text-anchor:start;font-size:12.7998;font-family:monospace;font-style:normal;font-weight:normal" x="507.6" y="343.5"></text>
  </g>
  <g>
    <polyline style="fill: none; fill-opacity:0; stroke-width: 2; stroke: #000000" points="531.992,-401 517.796,-401 517.796,275.5 503.6,275.5 "/>
    <text style="fill: #000000;text-anchor:start;font-size:12.7998;font-family:monospace;font-style:normal;font-weight:normal" x="519.796" y="-66.75"></text>
    <text style="fill: #000000;text-anchor:end;font-size:12.7998;font-family:monospace;font-style:normal;font-weight:normal" x="527.992" y="-405"></text>
    <text style="fill: #000000;text-anchor:start;font-size:12.7998;font-family:monospace;font-style:normal;font-weight:normal" x="507.6" y="271.5"></text>
  </g>
  <g>
    <polyline style="fill: none; fill-opacity:0; stroke-width: 2; stroke: #000000" points="681.5,-486 681.5,-461.5 300,-461.5 300,-285 "/>
    <text style="fill: #000000;text-anchor:middle;font-size:12.7998;font-family:monospace;font-style:normal;font-weight:normal" x="490.75" y="-465.5"></text>
    <text style="fill: #000000;text-anchor:start;font-size:12.7998;font-family:monospace;font-style:normal;font-weight:normal" x="685.5" y="-474"></text>
    <text style="fill: #000000;text-anchor:start;font-size:12.7998;font-family:monospace;font-style:normal;font-weight:normal" x="304" y="-289"></text>
  </g>
</svg>
